<svg t="1697459457086" class="icon" viewBox="0 0 1024 1024" version="1.1"
  xmlns="http://www.w3.org/2000/svg" p-id="1139" width="180" height="180">
  <path d="M0 0h1024v1024H0z" fill="#FFFFFF" p-id="1140"></path>
  <path d="M512 512m-448 0a448 448 0 1 0 896 0 448 448 0 1 0-896 0Z" fill="#FD504E" p-id="1141"></path>
  <path
    d="M672 194c119.804 0 228.625 47.026 309.01 123.627v648.746a450.742 450.742 0 0 1-7.108 6.628H370.098C280.325 891.073 224 773.114 224 642c0-247.424 200.576-448 448-448z"
    fill="#FFFFFF" opacity=".1" p-id="1142"></path>
  <path
    d="M674.4 316c34.02 0 61.6 27.58 61.6 61.6V456c0 9.278-7.522 16.8-16.8 16.8-21.65 0-39.2 17.55-39.2 39.2 0 21.65 17.55 39.2 39.2 39.2 9.278 0 16.8 7.522 16.8 16.8v78.4c0 34.02-27.58 61.6-61.6 61.6H349.6c-34.02 0-61.6-27.58-61.6-61.6V568c0-9.278 7.522-16.8 16.8-16.8 21.65 0 39.2-17.55 39.2-39.2 0-21.65-17.55-39.2-39.2-39.2-9.278 0-16.8-7.522-16.8-16.8v-78.4c0-34.02 27.58-61.6 61.6-61.6h324.8zM468.202 416.447c-6.096-6.44-16.148-7.034-22.96-1.355l-0.795 0.706c-6.44 6.096-7.034 16.148-1.355 22.96L480.797 484H456l-0.986 0.028c-8.88 0.522-15.814 7.876-15.814 16.772l0.028 0.986c0.522 8.88 7.876 15.814 16.772 15.814h42V540h-42l-0.986 0.028c-8.88 0.522-15.814 7.876-15.814 16.772l0.028 0.986c0.522 8.88 7.876 15.814 16.772 15.814h42V596l0.028 0.986c0.522 8.88 7.876 15.814 16.772 15.814l0.986-0.028c8.88-0.522 15.814-7.876 15.814-16.772v-22.4H568l0.986-0.028c8.88-0.522 15.814-7.876 15.814-16.772l-0.028-0.986C584.25 546.934 576.896 540 568 540h-36.4v-22.4H568l0.986-0.028c8.88-0.522 15.814-7.876 15.814-16.772l-0.028-0.986C584.25 490.934 576.896 484 568 484h-24.808l37.716-45.248 0.655-0.834c5.417-7.322 4.013-17.626-3.165-23.232-7.177-5.606-17.514-4.472-23.306 2.556L512 468.958l-43.092-51.716-0.706-0.795z"
    fill="#FFFFFF" p-id="1143"></path>
</svg>