<svg t="1697459472473" class="icon" viewBox="0 0 1024 1024" version="1.1"
  xmlns="http://www.w3.org/2000/svg" p-id="1295" width="180" height="180">
  <path
    d="M827.0848 613.4272c12.3904-33.0752 43.008-53.8624 76.1856-55.3984 13.7728-0.6144 25.7536-9.6768 30.5664-22.6304l14.336-38.4c24.32-64.9728-8.6528-137.3696-73.6256-161.6384L356.0448 141.3632c-64.9728-24.32-137.3696 8.6528-161.6384 73.6256L88.2688 498.688c-24.32 64.9728 8.6528 137.3696 73.6256 161.6384l518.5024 193.9968c64.9728 24.32 137.3696-8.6528 161.6384-73.6256l14.336-38.4c4.8128-12.9024 1.7408-27.5968-8.192-37.12-24.0128-22.8864-33.4336-58.7264-21.0944-91.7504z"
    fill="#FFD05C" p-id="1296"></path>
  <path
    d="M856.064 600.9344c0-37.4272 22.6816-69.4784 55.04-83.3024 13.4144-5.7344 21.9648-19.2 21.9648-33.792v-43.4176c0-73.5232-59.5968-133.12-133.12-133.12H213.1456c-73.5232 0-133.12 59.5968-133.12 133.12v321.024c0 73.5232 59.5968 133.12 133.12 133.12h586.752c73.5232 0 133.12-59.5968 133.12-133.12v-43.4176c0-14.592-8.4992-28.0576-21.9648-33.792-32.3584-13.824-54.9888-45.8752-54.9888-83.3024z"
    fill="#FFD05C" p-id="1297"></path>
  <path
    d="M889.7536 342.272c-4.864-2.6112-9.9328-4.9152-15.2064-6.912l-74.9568-28.0576H213.1456c-20.9408 0-40.704 4.864-58.3168 13.4656l-66.56 177.92c-24.32 64.9728 8.6528 137.3696 73.6256 161.6384l518.5024 193.9968c64.9728 24.32 137.3696-8.6528 161.6384-73.6256l14.3872-38.4c4.8128-12.9024 1.7408-27.5968-8.192-37.12-24.0128-22.9376-33.4336-58.7264-21.0944-91.8016 6.7072-17.9712 18.8928-32.3072 33.8944-41.9328a90.6752 90.6752 0 0 1 50.0736-53.8112c13.4144-5.7344 21.9648-19.2 21.9648-33.792v-43.4176c-0.0512-38.8608-16.7424-73.8304-43.3152-98.1504z"
    fill="#FCA235" p-id="1298"></path>
  <path
    d="M517.7856 599.2448c22.6304 0 40.96-18.3296 40.96-40.96s-18.3296-40.96-40.96-40.96h-34.2528l29.5936-46.2848c12.1856-19.0464 6.6048-44.3904-12.4928-56.576a40.9344 40.9344 0 0 0-56.576 12.4928l-32 50.1248-35.6352-51.4048a40.99072 40.99072 0 0 0-56.9856-10.3424c-18.5856 12.9024-23.2448 38.4-10.3424 56.9856l31.232 45.0048h-31.232c-22.6304 0-40.96 18.3296-40.96 40.96s18.3296 40.96 40.96 40.96h63.3856v28.9792H309.0944c-22.6304 0-40.96 18.3296-40.96 40.96s18.3296 40.96 40.96 40.96h63.3856v21.76c0 22.6304 18.3296 40.96 40.96 40.96s40.96-18.3296 40.96-40.96v-21.76h63.3856c22.6304 0 40.96-18.3296 40.96-40.96s-18.3296-40.96-40.96-40.96H454.4v-28.9792h63.3856zM698.0096 415.0272c-22.6304 0-40.96 18.3296-40.96 40.96v83.6608c0 22.6304 18.3296 40.96 40.96 40.96s40.96-18.3296 40.96-40.96V455.9872c0-22.5792-18.3296-40.96-40.96-40.96zM698.0096 622.1312c-22.6304 0-40.96 18.3296-40.96 40.96v83.6608c0 22.6304 18.3296 40.96 40.96 40.96s40.96-18.3296 40.96-40.96v-83.6608c0-22.6304-18.3296-40.96-40.96-40.96z"
    fill="#F7F8F8" p-id="1299"></path>
</svg>