<svg t="1697460294327" class="icon" viewBox="0 0 1034 1024" version="1.1" xmlns="http://www.w3.org/2000/svg" p-id="13333" width="180" height="180"><path d="M983.9616 282.4192H706.56a40.96 40.96 0 0 0-40.96-40.96H368.64a40.96 40.96 0 0 0-40.96 40.96H49.8688a42.3936 42.3936 0 0 0-42.3936 42.3936v651.4688a42.3936 42.3936 0 0 0 42.3936 42.496h934.0928a42.3936 42.3936 0 0 0 42.3936-42.496V324.8128a42.3936 42.3936 0 0 0-42.3936-42.3936z" fill="#EDEEF2" p-id="13334"></path><path d="M395.1616 324.1984a19.8656 19.8656 0 0 1 0-39.7312h243.5072a19.8656 19.8656 0 0 1 0 39.7312H395.1616z" fill="#FFFFFF" p-id="13335"></path><path d="M516.9152 0a104.1408 104.1408 0 0 0-104.1408 103.936v200.3968h208.2816V103.936A104.1408 104.1408 0 0 0 516.9152 0z" fill="#94A7BA" p-id="13336"></path><path d="M621.056 546.304h320.4096v-52.9408H621.056v52.9408z" fill="#FFC83A" p-id="13337"></path><path d="M941.568 622.592H536.4736v52.9408h405.0944V622.592z" fill="#94A7BA" p-id="13338"></path><path d="M941.568 751.8208H536.4736v52.9408h405.0944v-52.9408zM92.3648 933.888h849.1008v-52.9408H92.3648v52.9408z" fill="#B0C7E0" p-id="13339"></path><path d="M479.3344 367.3088H92.3648v437.248h386.9696v-437.248z" fill="#FFFFFF" p-id="13340"></path><path d="M218.624 641.024a83.65056 83.65056 0 0 0 134.4512 0c1.30048-1.72032 2.27328-3.66592 2.8672-5.7344L337.92 628.9408l-0.512 0.6144a64.59392 64.59392 0 0 1-103.6288 0v-0.6144l-18.0224 5.9392c0.6144 2.19136 1.57696 4.27008 2.8672 6.144z" fill="#F8A92B" p-id="13341"></path><path d="M233.5744 628.8384c0.7168 0.9216 0.6144 0.9216 0 0zM337.92 628.8384c-0.7168 0.9216-0.7168 0.9216 0 0zM233.5744 527.872c1.1264 13.4144-5.4272 24.9856-14.6432 25.8048-9.216 0.8192-17.6128-9.4208-18.8416-22.9376-1.2288-13.5168 5.3248-24.9856 14.5408-25.8048 9.216-0.8192 17.7152 9.4208 18.944 22.9376zM371.712 530.7392c-1.1264 13.5168-9.5232 23.7568-18.8416 22.9376-9.3184-0.8192-15.7696-12.3904-14.9504-25.8048 0.8192-13.4144 9.6256-23.7568 18.8416-22.9376 9.216 0.8192 16.1792 12.3904 14.9504 25.8048z" fill="#F8A92B" p-id="13342"></path><path d="M215.7568 460.0832a77.5168 77.5168 0 0 0-7.4752 33.0752v23.2448a147.456 147.456 0 0 0 1.1264 17.8176 146.2272 146.2272 0 0 0 37.1712 80.896l7.3728 8.0896A35.6352 35.6352 0 0 0 280.2688 634.88h11.264A35.6352 35.6352 0 0 0 317.44 623.2064l7.4752-8.0896a146.2272 146.2272 0 0 0 37.1712-80.896c0.69632-5.90848 1.04448-11.86816 1.024-17.8176v-23.2448a77.5168 77.5168 0 0 0-7.3728-33.0752H215.7568z" fill="#FFC83A" p-id="13343"></path><path d="M325.3248 615.0144l-7.4752 8.192A35.6352 35.6352 0 0 1 291.5328 634.88h-11.264a35.62496 35.62496 0 0 1-26.3168-11.5712l-7.3728-8.192a141.2608 141.2608 0 0 1-13.0048-16.4864v30.72l52.224 70.7584L337.92 628.8384v-30.72a156.0576 156.0576 0 0 1-12.5952 16.896z" fill="#F8A92B" p-id="13344"></path><path d="M209.408 534.2208l10.24 3.8912a42.496 42.496 0 0 1 4.608-29.184s-5.4272-44.032 27.136-40.96c0 0 25.9072 9.0112 74.1376 0a15.36 15.36 0 0 1 16.2816 20.48s0 23.9616 10.752 28.7744l-0.8192 21.4016 10.24-2.7648a460.82048 460.82048 0 0 0 0-58.9824c-5.8368-37.2736-51.0976-57.0368-51.0976-57.0368a12.1856 12.1856 0 0 1 12.6976-3.584c-57.2416-36.2496-95.232-2.4576-95.232-2.4576a69.3248 69.3248 0 0 0-19.2512 80.1792c-2.4064 13.312-2.304 26.96192 0.3072 40.2432z" fill="#32536B" p-id="13345"></path><path d="M108.8512 772.5056H462.848V724.992a60.0064 60.0064 0 0 0-34.816-54.4768L337.92 628.9408l-0.512 0.6144a64.60416 64.60416 0 0 1-103.6288 0v-0.6144L143.36 670.5152a59.8016 59.8016 0 0 0-34.816 54.4768l0.3072 47.5136z" fill="#FF5336" p-id="13346"></path><path d="M561.8688 93.2864a44.9536 44.9536 0 1 1-44.9536-44.8512 45.056 45.056 0 0 1 44.9536 44.8512z" fill="#FFFFFF" p-id="13347"></path></svg>