<svg t="1697459237947" class="icon" viewBox="0 0 1024 1024" version="1.1"
  xmlns="http://www.w3.org/2000/svg" p-id="9194" width="180" height="180">
  <path
    d="M165.376768 0h693.248C893.389568 0 921.600768 28.672 921.600768 64v74.9056L598.887168 279.3472a218.7264 218.7264 0 0 1-173.7728 0L102.400768 138.9056V64C102.400768 28.672 130.611968 0 165.427968 0z m693.248 1024H165.376768A63.5904 63.5904 0 0 1 102.400768 960V208.4864l297.8816 129.6896a280.576 280.576 0 0 0 223.4368 0L921.600768 208.5376V960c0 35.328-28.2624 64-63.0272 64zM512.000768 560.7936L393.421568 470.4256l-37.7856 51.2 124.928 95.0784v7.936H401.920768v64h78.5408v47.7184H401.920768v64h78.4896v79.6672h62.976v-79.6672h78.592V736.256H543.539968v-47.6672h78.4896v-64H543.539968v-7.936l124.8256-95.0784-37.7344-51.2L512.000768 560.6912v0.1024z"
    fill="#FF5654" p-id="9195"></path>
</svg>