<svg t="1683560329361" class="icon" viewBox="0 0 1024 1024" version="1.1"
  xmlns="http://www.w3.org/2000/svg" p-id="1472" width="200" height="200">
  <path
    d="M554.586353 512l170.556235-170.556235c11.444706-11.414588 11.595294-30.659765-0.180706-42.405647a29.906824 29.906824 0 0 0-42.405647-0.180706L512 469.413647l-170.556235-170.556235a30.208 30.208 0 0 0-42.405647 0.180706 29.906824 29.906824 0 0 0-0.180706 42.405647L469.413647 512l-170.556235 170.556235c-11.444706 11.414588-11.595294 30.659765 0.180706 42.405647a29.906824 29.906824 0 0 0 42.405647 0.180706L512 554.586353l170.556235 170.556235c11.414588 11.444706 30.659765 11.595294 42.405647-0.180706a29.906824 29.906824 0 0 0 0.180706-42.405647L554.586353 512zM512 993.882353C245.850353 993.882353 30.117647 778.149647 30.117647 512S245.850353 30.117647 512 30.117647s481.882353 215.732706 481.882353 481.882353-215.732706 481.882353-481.882353 481.882353z"
    fill="#515151" p-id="1473"></path>
</svg>