<svg t="1684039830792" class="icon" viewBox="0 0 1024 1024" version="1.1"
  xmlns="http://www.w3.org/2000/svg" p-id="5140" width="200" height="200">
  <path
    d="M558.096874 509.244236l278.304494-276.863678c13.159718-13.094226 13.226233-34.31248 0.132006-47.472198-13.123902-13.189394-34.305317-13.226233-47.465035-0.132006L510.692215 461.669708 234.740302 184.877661c-13.062504-13.093203-34.310434-13.159718-47.470151-0.066515-13.129019 13.093203-13.160741 34.342156-0.066515 47.501874l275.885398 276.725532L184.918593 785.733385c-13.160741 13.094226-13.226233 34.310434-0.134053 47.472198 6.54609 6.581905 15.172561 9.900487 23.799032 9.900487 8.56098 0 17.125029-3.252067 23.672142-9.768481l278.236955-276.761348 278.473339 279.31245c6.54609 6.582929 15.142885 9.871835 23.768333 9.871835 8.594749 0 17.155728-3.288906 23.701818-9.80532 13.123902-13.093203 13.159718-34.305317 0.066515-47.465035L558.096874 509.244236 558.096874 509.244236zM558.096874 509.244236"
    fill="#272636" p-id="5141"></path>
</svg>