<svg t="1678537626317" class="icon" viewBox="0 0 1024 1024" version="1.1"
  xmlns="http://www.w3.org/2000/svg" p-id="3130" width="600" height="600">
  <path
    d="M545.653983 541.969569l-70.219271 0c-16.179494 0-29.29521-13.111622-29.29521-29.291117L446.139501 91.660606c0-16.180518 13.116739-29.296233 29.29521-29.296233l70.219271 0c16.180518 0 29.296233 13.115716 29.296233 29.296233L574.950216 512.679475C574.949192 528.85897 561.833477 541.969569 545.653983 541.969569L545.653983 541.969569zM545.653983 541.969569"
    fill="#272636" p-id="3131"></path>
  <path
    d="M635.661949 171.316807l0 119.92023c0 0.271176 0.157589 0.517793 0.405229 0.636496 93.009324 44.518936 158.711721 136.957255 165.098175 245.353011 10.171664 172.682921-133.101437 317.036633-305.857013 308.129776-153.704684-7.92346-275.891538-135.062092-275.891538-290.737664 0-115.842355 67.658959-215.864396 165.605735-262.745123 0.24764-0.11768 0.405229-0.364297 0.405229-0.636496L385.427768 171.316807c0-0.487094-0.478907-0.832971-0.941442-0.680499C202.621279 230.309386 77.672522 415.535995 112.234689 623.841228c27.140127 163.564239 152.755056 294.265 315.373761 326.58715 259.479753 51.579749 487.002676-145.545864 487.002676-395.810744 0-179.136913-116.588345-331.021136-278.013875-383.981325C636.13881 170.483836 635.661949 170.829713 635.661949 171.316807L635.661949 171.316807zM635.661949 171.316807"
    fill="#272636" p-id="3132"></path>
</svg>
