<svg t="1698586820628" class="icon" viewBox="0 0 1024 1024" version="1.1" xmlns="http://www.w3.org/2000/svg" p-id="4070" width="180" height="180"><path d="M704 384v512H192V384h512m32-64h-576a32 32 0 0 0-32 32v576a32 32 0 0 0 32 32h576a32 32 0 0 0 32-32v-576a32 32 0 0 0-32-32z" fill="#1296db" p-id="4071"></path><path d="M320 512m32 0l192 0q32 0 32 32l0 0q0 32-32 32l-192 0q-32 0-32-32l0 0q0-32 32-32Z" fill="#1296db" p-id="4072"></path><path d="M320 704m32 0l192 0q32 0 32 32l0 0q0 32-32 32l-192 0q-32 0-32-32l0 0q0-32 32-32Z" fill="#1296db" p-id="4073"></path><path d="M928 128h-576a32 32 0 0 0-32 32V256h64V192h512v576h-64v64h96a32 32 0 0 0 32-32v-640a32 32 0 0 0-32-32z" fill="#1296db" p-id="4074"></path></svg>