<svg t="1684040435299" class="icon" viewBox="0 0 1024 1024" version="1.1"
  xmlns="http://www.w3.org/2000/svg" p-id="10319" width="200" height="200">
  <path
    d="M512 1023.914667c-281.315556 0-509.269333-229.205333-509.269333-511.943111C2.730667 229.176889 230.684444 0.028444 512 0.028444c281.230222 0 509.240889 229.148444 509.240889 511.943112 0 282.794667-227.925333 511.943111-509.240889 511.943111z m0-955.704889c-243.768889 0-441.372444 198.656-441.372444 443.704889 0 244.963556 197.603556 443.676444 441.372444 443.676444 243.740444 0 441.287111-198.627556 441.344-443.676444 0-245.048889-197.603556-443.704889-441.344-443.704889z m234.382222 473.6h-199.822222l-0.881778 228.721778c0 8.476444 1.820444 44.8-37.432889 44.8-37.262222 0-33.536-23.978667-33.536-42.069334l0.085334-231.395555H255.260444c-14.336 0-31.374222 0.085333-31.374222-43.747556 0-32.568889 39.850667-28.871111 39.850667-28.871111h211.057778V248.547556c0-14.449778 11.121778-27.306667 35.84-25.856 24.718222 1.422222 35.84 11.463111 35.84 25.856v220.700444h199.850666s45.539556-5.944889 45.084445 34.588444c-0.483556 40.561778-35.868444 37.973333-45.027556 37.973334z"
    fill="#fff" p-id="10320"></path>
</svg>