<svg t="1682955655148" class="icon" viewBox="0 0 1024 1024" version="1.1"
  xmlns="http://www.w3.org/2000/svg" p-id="18388" width="200" height="200">
  <path
    d="M582.179874 578.294892c11.818163-1.780553 23.690562-3.507894 36.049031-3.507894 75.819826 0 135.558395 29.950126 188.44286 75.117838 10.090822-11.332093 24.445762-18.779715 40.797172-18.779715 5.342682 0 10.145058 1.61887 15.055904 3.076058-41.337477-46.6249-95.30153-81.594343-157.036569-98.646718 69.722968-32.918737 118.343315-103.395882 118.343315-185.421037 0-113.433492-92.224448-205.603705-205.603705-205.603705-40.742936 0-78.625732 12.195763-110.626563 32.702819-31.94762-20.507056-69.667709-32.702819-110.410646-32.702819-113.379257 0-205.603705 92.171236-205.603705 205.603705 0 81.054037 47.542806 150.560064 115.861798 184.072319C168.813289 573.438281 66.874595 700.793854 66.874595 851.839988c0 15.271822 12.304234 27.630291 27.630291 27.630291 15.217586 0 27.629267-12.358469 27.629267-27.630291 0-151.692864 123.363655-275.109732 275.05652-275.109732 151.693888 0 275.110755 123.415844 275.110755 275.109732 0 15.271822 12.357446 27.630291 27.629267 27.630291 15.272845 0 27.630291-12.358469 27.630291-27.630291C727.559962 738.136344 669.872099 637.764332 582.179874 578.294892zM508.950036 522.280134c6.745634 4.263094 15.433504 10.145058 22.017456 13.275351-6.529717 1.834788-12.681834 4.479011-18.887163 6.907317-8.256034-3.021823-16.620539-5.827729-25.146727-8.31027C494.488673 530.482957 501.989507 526.813381 508.950036 522.280134zM768.573051 350.133426c0 82.888825-67.456345 150.344147-150.34517 150.344147-24.01495 0-46.355771-6.259564-66.429968-16.297175 31.298843-36.049031 50.996464-82.619696 50.996464-134.046972 0-51.374064-19.590174-97.891518-50.887994-133.939525 20.128433-10.037611 42.360783-16.404622 66.322521-16.404622C701.116707 199.789279 768.573051 267.2446 768.573051 350.133426zM246.846526 350.133426c0-82.888825 67.455321-150.344147 150.344147-150.344147 82.889849 0 150.34517 67.455321 150.34517 150.344147 0 82.888825-67.455321 150.344147-150.34517 150.344147C314.301847 500.477572 246.846526 433.022251 246.846526 350.133426z"
    fill="#000000" p-id="18389"></path>
  <path
    d="M929.494091 740.780567l-54.395888 0L875.098203 686.385702c0-15.272845-12.357446-27.630291-27.629267-27.630291-15.272845 0-27.630291 12.357446-27.630291 27.630291l0 54.394864-54.395888 0c-15.271822 0-27.629267 12.358469-27.629267 27.630291s12.357446 27.629267 27.629267 27.629267l54.395888 0 0 54.395888c0 15.271822 12.357446 27.630291 27.630291 27.630291 15.271822 0 27.629267-12.358469 27.629267-27.630291l0-54.395888 54.395888 0c15.271822 0 27.630291-12.357446 27.630291-27.629267S944.765913 740.780567 929.494091 740.780567z"
    fill="#000000" p-id="18390"></path>
</svg>