<svg t="1682956131235" class="icon" viewBox="0 0 1024 1024" version="1.1"
  xmlns="http://www.w3.org/2000/svg" p-id="20838" width="200" height="200">
  <path
    d="M700.29755 254.162654l0 54.087872 0 460.690404c0 51.779294-41.983183 93.758384-93.7635 93.758384L253.143441 862.699314c-51.779294 0-93.762477-41.97909-93.762477-93.758384L159.380964 253.264191c0-51.78441 41.983183-93.76964 93.762477-93.76964l353.390609 0c51.780317 0 93.7635 41.984207 93.7635 93.76964L700.29755 254.162654 700.29755 254.162654 700.29755 254.162654zM700.29755 902.31559l0 14.475689 108.181885 0c59.743686 0 108.185978-48.436152 108.185978-108.180861L916.665413 375.863437c0-59.743686-48.442292-108.180861-108.185978-108.180861l-54.094012 0 0-54.087872c0-59.754942-48.437176-108.188025-108.181885-108.188025L213.468836 105.406678c-59.745732 0-108.181885 48.433082-108.181885 108.188025l0 595.016739c0 59.743686 48.436152 108.180861 108.181885 108.180861l432.734702 0C665.913439 916.79128 684.383092 911.512043 700.29755 902.31559L700.29755 902.31559 700.29755 902.31559zM862.572424 768.94093c0 51.779294-41.978067 93.758384-93.762477 93.758384l-28.89612 0c9.208732-15.919575 14.477736-34.385135 14.477736-54.087872L754.391563 321.774541l14.418384 0c51.78441 0 93.762477 41.973974 93.762477 93.758384l0 0.898463L862.572424 768.94093 862.572424 768.94093 862.572424 768.94093zM267.561825 686.899402c0 14.935154 12.108782 13.518898 27.043936 13.518898l270.461875 0c14.94027 0 27.043936 1.411139 27.043936-13.518898 0-14.94027-12.103666-40.574091-27.043936-40.574091L294.605761 646.325311C279.670607 646.325311 267.561825 671.959132 267.561825 686.899402L267.561825 686.899402 267.561825 686.899402zM267.561825 524.619412c0 14.935154 12.108782 13.524015 27.043936 13.524015l270.461875 0c14.94027 0 27.043936 1.411139 27.043936-13.524015 0-14.935154-12.103666-40.569998-27.043936-40.569998L294.605761 484.049414C279.670607 484.049414 267.561825 509.684258 267.561825 524.619412L267.561825 524.619412 267.561825 524.619412zM267.561825 362.344538c0 14.933107 12.108782 13.524015 27.043936 13.524015l270.461875 0c14.94027 0 27.043936 1.409093 27.043936-13.524015 0-14.935154-12.103666-40.569998-27.043936-40.569998L294.605761 321.774541C279.670607 321.774541 267.561825 347.409384 267.561825 362.344538L267.561825 362.344538 267.561825 362.344538zM267.561825 362.344538"
    fill="#000000" p-id="20839"></path>
</svg>