<svg t="1697345239048" class="icon" viewBox="0 0 1024 1024" version="1.1"
  xmlns="http://www.w3.org/2000/svg" p-id="36884" width="180" height="180">
  <path
    d="M891.033093 98.392071 649.86931 98.392071c-56.248614 0-106.30472 27.178229-137.783303 68.977658-31.478582-41.799429-81.534688-68.977658-137.783303-68.977658L132.966907 98.392071c-38.015118 0-68.977658 30.96254-68.977658 68.977658l0 637.484294c0 38.015118 30.96254 68.977658 68.977658 68.977658l253.376785 0c33.88678 33.026709 78.782463 51.604233 125.742315 51.604233s91.855535-18.577524 125.742315-51.604233L891.033093 873.831682c38.015118 0 68.977658-30.96254 68.977658-68.977658L960.010751 167.36973C960.010751 129.354611 929.048211 98.392071 891.033093 98.392071zM891.033093 804.854023 622.863094 804.854023c-9.976818 0-19.609609 4.300353-26.146145 12.040988-21.501764 25.11406-52.464304 39.563245-84.630942 39.563245-32.166639 0-63.129179-14.449185-84.630942-39.563245-6.536536-7.740635-16.169326-12.040988-26.146145-12.040988l-268.342012 0L132.966907 167.36973l241.163783 0c56.936671 0 103.38048 46.44381 103.38048 103.38048l0 292.94003c0 19.093566 15.48127 34.402822 34.402822 34.402822 19.093566 0 34.402822-15.48127 34.402822-34.402822L546.316815 270.75021c0-56.936671 46.44381-103.38048 103.38048-103.38048L891.033093 167.36973 891.033093 804.854023z"
    fill="#000000" p-id="36885"></path>
</svg>