<svg t="1696687661141" class="icon" viewBox="0 0 1024 1024" version="1.1" xmlns="http://www.w3.org/2000/svg" p-id="3582" width="180" height="180"><path d="M512 512m-448 0a448 448 0 1 0 896 0 448 448 0 1 0-896 0Z" fill="#57E087" p-id="3583"></path><path d="M512 256c141.385 0 256 114.615 256 256S653.385 768 512 768H292c-19.882 0-36-16.118-36-36V512c0-141.385 114.615-256 256-256z" fill="#FFFFFF" p-id="3584"></path><path d="M640 512m-32 0a32 32 0 1 0 64 0 32 32 0 1 0-64 0Z" fill="#42DA77" p-id="3585"></path><path d="M512 512m-32 0a32 32 0 1 0 64 0 32 32 0 1 0-64 0Z" fill="#42DA77" p-id="3586"></path><path d="M384 512m-32 0a32 32 0 1 0 64 0 32 32 0 1 0-64 0Z" fill="#42DA77" p-id="3587"></path><path d="M256 576c12.916 51.583 34.916 92.916 66 124 31.084 31.084 73.084 53.75 126 68H292c-19.882 0-36-16.118-36-36V576z" fill="#F2F5F3" p-id="3588"></path></svg>