<svg xmlns="http://www.w3.org/2000/svg" xmlns:xlink="http://www.w3.org/1999/xlink"  viewBox="0 0 32 32" version="1.1">
  <defs>
    <polygon id="path-1" points="0 32 120.963368 32 120.963368 0 0 0" />
  </defs>
  <g id="标题栏和目录" stroke="none" stroke-width="1" fill="none" fill-rule="evenodd">
    <g id="平台logo" transform="translate(-25.000000, -90.000000)">
      <g id="编组" transform="translate(25.000000, 90.000000)">
        <mask id="mask-2" fill="white">
          <use xlink:href="#path-1" />
        </mask>
        <g id="Clip-6" />
        <path
          d="M27.1592758,6.37925053 C25.4878653,2.94245053 21.2598232,0.000808421053 16.47296,0.000134342517 C13.9611284,-0.000538947368 10.1238232,0.861776842 7.25628632,4.32922947 C5.34133895,6.64468211 4.69662316,9.35457684 5.10016,12.0570611 C5.37738105,13.9137347 6.41148632,16.3632505 7.89123368,17.9127242 C8.44904421,13.9848084 10.5179284,10.8956295 13.2305179,8.62497684 C18.1282021,4.88333474 23.3570021,5.09520842 27.1592758,6.37925053"
          id="Fill-7" fill="#07C160" mask="url(#mask-2)" />
        <path
          d="M30.9808168,12.272 C27.9842695,8.38315789 22.8043116,7.29515789 18.1282695,9.02922105 C18.2791747,9.07469474 18.4297432,9.11949474 18.5799747,9.17035789 C25.5030905,11.5289263 29.2447326,19.0394947 26.9373642,25.9454316 C26.3233011,27.7825684 25.3403958,29.3893053 24.1021642,30.7174737 C25.5937011,30.3045053 27.1202695,29.7140211 28.4299116,28.7048421 C33.7025011,24.6421895 34.7403116,17.1508211 30.9808168,12.272"
          id="Fill-8" fill="#07C160" mask="url(#mask-2)" />
        <path
          d="M16.4597558,24.6952084 C15.4077979,24.6952084 14.3888505,24.5742821 13.40864,24.3553347 C13.2890611,24.3307453 13.1657768,24.3162611 13.0377768,24.3219874 C12.7474189,24.3344505 12.48704,24.4348295 12.24384,24.5907874 L9.01082947,26.6633768 C8.92021895,26.7209768 8.83264,26.7661137 8.72282947,26.7708295 C8.44358737,26.7829558 8.20779789,26.5643453 8.19567158,26.2840926 C8.19028211,26.15744 8.23508211,26.0297768 8.26135579,25.9081768 C8.27718737,25.8354189 8.61975579,24.2815663 8.83331368,23.3121347 C8.85824,23.2029979 8.87777684,23.0979032 8.87306105,22.9857347 C8.85857684,22.6485558 8.68139789,22.3571874 8.42236632,22.1827032 C5.01520842,19.8591663 2.67819789,16.2081347 2.16417684,12.4543663 C1.30725053,13.8013979 0.850829474,14.8718821 0.404176842,16.4324716 C-1.26150737,22.2554611 2.38413474,29.2314611 8.33344,31.1854821 C15.1753768,33.4325558 21.7040505,30.9102821 23.9592084,25.0913347 C24.2333979,24.38464 24.5331874,23.1844716 24.5951663,22.1874189 C22.1992084,23.9501137 19.6624505,24.6952084 16.4597558,24.6952084"
          id="Fill-9" fill="#07C160" mask="url(#mask-2)" />
      </g>
    </g>
  </g>
</svg>