<svg t="1678534295929" class="icon" viewBox="0 0 1024 1024" version="1.1" xmlns="http://www.w3.org/2000/svg" p-id="2767" width="600" height="600"><path
    d="M512 128a384 384 0 1 0 0 768 384 384 0 0 0 0-768zM42.666667 512C42.666667 252.8 252.8 42.666667 512 42.666667s469.333333 210.133333 469.333333 469.333333-210.133333 469.333333-469.333333 469.333333S42.666667 771.2 42.666667 512z"
    fill="#3b82f6" p-id="2768"></path><path
    d="M439.68 349.013333c-23.594667 18.944-34.346667 39.936-34.346667 56.32a42.666667 42.666667 0 0 1-85.333333 0c0-51.882667 31.402667-94.890667 66.218667-122.88C421.290667 254.293333 467.797333 234.666667 512 234.666667c40.832 0 87.168 13.098667 124.245333 40.234666 38.144 27.861333 67.754667 71.765333 67.754667 130.432 0 76.373333-55.253333 120.149333-90.965333 148.224l-6.058667 4.693334c-17.152 13.482667-30.08 23.637333-39.808 34.517333-9.813333 10.922667-12.501333 18.56-12.501333 25.898667a42.666667 42.666667 0 1 1-85.333334 0c0-35.328 15.957333-62.378667 34.176-82.773334 15.189333-16.981333 34.56-32.128 50.688-44.672l6.101334-4.778666c38.954667-30.592 58.368-50.816 58.368-81.109334 0-26.666667-12.501333-46.762667-32.768-61.568A130.730667 130.730667 0 0 0 512 320c-20.864 0-49.066667 10.24-72.32 29.013333zM512 704a42.666667 42.666667 0 0 1 42.666667 42.666667v21.333333a42.666667 42.666667 0 1 1-85.333334 0v-21.333333a42.666667 42.666667 0 0 1 42.666667-42.666667z"
    fill="#3b82f6" p-id="2769"></path></svg>
