<svg t="1697337623038" class="icon" viewBox="0 0 1024 1024" version="1.1"
  xmlns="http://www.w3.org/2000/svg" p-id="4029" width="180" height="180">
  <path
    d="M512 0C227.555556 0 0 227.555556 0 512s227.555556 512 512 512 512-227.555556 512-512-227.555556-512-512-512z m45.511111 853.333333c-17.066667 11.377778-28.444444 17.066667-51.2 17.066667-17.066667 0-34.133333-5.688889-51.2-17.066667-17.066667-11.377778-22.755556-28.444444-22.755555-51.2s5.688889-34.133333 22.755555-51.2c11.377778-11.377778 28.444444-22.755556 51.2-22.755555s34.133333 5.688889 51.2 22.755555c11.377778 11.377778 22.755556 28.444444 22.755556 51.2s-11.377778 39.822222-22.755556 51.2z m176.355556-443.733333c-11.377778 22.755556-22.755556 39.822222-39.822223 51.2-17.066667 17.066667-39.822222 39.822222-79.644444 73.955556l-28.444444 28.444444c-5.688889 5.688889-11.377778 17.066667-17.066667 22.755556v17.066666c0 5.688889-5.688889 17.066667-5.688889 34.133334-5.688889 34.133333-22.755556 51.2-56.888889 51.2-17.066667 0-28.444444-5.688889-39.822222-17.066667-11.377778-11.377778-17.066667-28.444444-17.066667-45.511111 0-28.444444 5.688889-51.2 11.377778-68.266667 5.688889-17.066667 17.066667-34.133333 34.133333-51.2 11.377778-17.066667 34.133333-34.133333 56.888889-51.2 22.755556-17.066667 34.133333-28.444444 45.511111-39.822222s17.066667-17.066667 22.755556-28.444445c5.688889-11.377778 11.377778-22.755556 11.377778-34.133333 0-22.755556-11.377778-45.511111-28.444445-62.577778-17.066667-17.066667-45.511111-28.444444-73.955555-28.444444-45.511111-11.377778-73.955556 0-85.333334 17.066667-17.066667 17.066667-34.133333 45.511111-45.511111 79.644444-11.377778 34.133333-28.444444 51.2-62.577778 51.2-17.066667 0-34.133333-5.688889-45.511111-17.066667-11.377778-11.377778-17.066667-28.444444-17.066666-39.822222 0-28.444444 11.377778-62.577778 28.444444-91.022222s45.511111-56.888889 85.333333-79.644445c39.822222-22.755556 79.644444-28.444444 130.844445-28.444444 45.511111 0 85.333333 5.688889 119.466667 22.755556 34.133333 17.066667 62.577778 39.822222 79.644444 68.266666 22.755556 28.444444 34.133333 62.577778 34.133333 96.711111 0 28.444444-5.688889 51.2-17.066666 68.266667z"
    fill="#07c160" p-id="4030"></path>
</svg>