<svg t="1687087229893" class="icon" viewBox="0 0 1024 1024" version="1.1"
  xmlns="http://www.w3.org/2000/svg" p-id="3907" width="180" height="180">
  <path
    d="M512 85.333333h-42.666667v469.333334h469.333334v-42.666667c0-235.648-191.018667-426.666667-426.666667-426.666667z m42.666667 384V173.312c154.389333 19.242667 276.778667 141.632 296.021333 296.021333H554.666667zM85.376 512c0-191.061333 125.568-352.789333 298.666667-407.146667v90.602667c-125.077333 50.645333-213.333333 173.290667-213.333334 316.522667 0 188.522667 152.832 341.333333 341.333334 341.333333 143.274667 0 265.92-88.256 316.544-213.354667h90.602666c-54.357333 173.12-216.085333 298.688-407.146666 298.688-235.626667 0-426.666667-191.018667-426.666667-426.666666z"
    fill="#444" p-id="3908"></path>
  <path
    d="M512 85.333333h-42.666667v469.333334h469.333334v-42.666667c0-235.648-191.018667-426.666667-426.666667-426.666667z m42.666667 384V173.312c154.389333 19.242667 276.778667 141.632 296.021333 296.021333H554.666667z"
    fill="#3b82f6" p-id="3909"></path>
</svg>