<svg t="1697345598330" class="icon" viewBox="0 0 1024 1024" version="1.1"
  xmlns="http://www.w3.org/2000/svg" p-id="39233" width="180" height="180">
  <path
    d="M632.832 69.632H391.168C189.44 69.632 25.6 233.472 25.6 435.2v6.656c0 194.048 152.064 353.28 343.552 365.056v95.744c0 19.456 10.752 36.864 28.16 45.568 7.168 3.584 15.36 5.632 23.04 5.632 10.752 0 21.504-3.584 30.208-9.728l184.832-136.192c200.192-1.536 363.008-164.864 363.008-365.568v-6.656c0-201.728-163.84-366.08-365.568-366.08z m263.168 372.736c0 145.408-118.272 263.168-263.168 263.168h-13.824c-10.752 0-21.504 3.584-30.208 9.728l-117.248 86.016v-45.056c0-28.16-23.04-51.2-51.2-51.2h-29.184c-145.408 0-263.168-118.272-263.168-263.168v-6.144c0-145.408 118.272-263.168 263.168-263.168h241.152c145.408 0 263.168 118.272 263.168 263.168v6.656z"
    fill="#000000" p-id="39234"></path>
  <path d="M332.288 438.784m-51.2 0a51.2 51.2 0 1 0 102.4 0 51.2 51.2 0 1 0-102.4 0Z" fill="#000000"
    p-id="39235"></path>
  <path d="M512 438.784m-51.2 0a51.2 51.2 0 1 0 102.4 0 51.2 51.2 0 1 0-102.4 0Z" fill="#000000"
    p-id="39236"></path>
  <path d="M691.712 438.784m-51.2 0a51.2 51.2 0 1 0 102.4 0 51.2 51.2 0 1 0-102.4 0Z" fill="#000000"
    p-id="39237"></path>
</svg>