<svg t="1682956344260" class="icon" viewBox="0 0 1024 1024" version="1.1"
  xmlns="http://www.w3.org/2000/svg" p-id="24044" width="200" height="200">
  <path
    d="M311.08 757.37c-2.21 0-4.46-0.42-6.63-1.32l-44.5-18.43c-8.85-3.66-13.05-13.8-9.38-22.65 3.66-8.84 13.81-13.04 22.65-9.38l44.5 18.43c8.85 3.66 13.05 13.8 9.38 22.65-2.76 6.67-9.22 10.7-16.02 10.7z"
    fill="#353535" p-id="24045"></path>
  <path
    d="M602.26 879.27c-2.3 0-4.57-0.46-6.69-1.34L354.01 776.94c-8.83-3.69-13-13.85-9.31-22.68 3.69-8.83 13.85-13 22.68-9.31l226.7 94.78V184.3l-461.3 193.82v270.29l67.53 28.01c8.84 3.67 13.04 13.81 9.37 22.66-3.67 8.84-13.81 13.04-22.66 9.37l-66.76-27.69c-12.55-2.16-22.16-13.5-22.16-27.13V372.91c0-13.61 9.58-24.94 22.11-27.12l475.33-199.71c2.13-0.89 4.41-1.35 6.72-1.35 14.61 0 26.5 12.34 26.5 27.5v679.55c0 15.16-11.89 27.49-26.5 27.49zM821.85 778.29c-4.69 0-9.36-1.89-12.78-5.62-6.47-7.05-6-18.02 1.05-24.49 0.16-0.15 20.49-19.33 40.54-58.52 18.5-36.18 40.56-97.36 40.56-183.34 0-164.74-79.29-229.01-80.1-229.64-7.53-5.92-8.83-16.82-2.91-24.34 5.92-7.53 16.82-8.83 24.34-2.91 3.81 3 93.33 75.5 93.33 256.89 0 93.93-24.64 161.12-45.3 200.95-22.83 43.99-46.05 65.56-47.02 66.46a17.293 17.293 0 0 1-11.71 4.56zM673.98 725.73c-6.9-5.08-6.67-16.09 0.39-21.25 0.16-0.12 20.49-15.41 40.54-46.65 18.5-28.84 40.56-77.6 40.56-146.13 0-131.31-79.42-182.38-80.1-183.04-6.33-6.12-6.33-16.62-1.27-21.3 6.18-5.73 15.18-5.14 22.7-0.42 3.81 2.39 93.33 60.18 93.33 204.76 0 74.87-24.64 128.42-45.3 160.17-22.83 35.06-46.05 52.26-47.02 52.97-3.33 2.44-14.83 7.52-23.83 0.89z"
    fill="#353535" p-id="24046"></path>
</svg>