<svg t="1697358445717" class="icon" viewBox="0 0 1025 1024" version="1.1"
  xmlns="http://www.w3.org/2000/svg" p-id="44015" width="180" height="180">
  <path
    d="M338.895 385.219c17.067 0 29.257-12.19 29.257-30.476s-12.19-29.257-29.257-29.257-35.352 12.19-35.352 29.257c0 18.286 17.067 30.476 35.352 30.476z m164.572-59.733c-17.067 0-35.353 12.19-35.353 29.257 0 18.286 18.286 30.476 35.353 30.476 18.285 0 29.257-12.19 29.257-30.476 0-17.067-10.972-29.257-29.257-29.257z m206.019 221.866c18.285 0 29.257-12.19 29.257-24.38s-12.19-24.382-29.257-24.382c-12.19 0-23.162 12.191-23.162 24.381s12.19 24.381 23.162 24.381z m-129.22 0c18.286 0 29.258-12.19 29.258-24.38s-12.19-24.382-29.257-24.382c-12.19 0-23.162 12.191-23.162 24.381s10.971 24.381 23.162 24.381zM1.22 512c0 282.819 229.181 512 512 512s512-229.181 512-512S794.819 0 512 0C230.4 0 1.219 229.181 1.219 512z m629.029-121.905c-112.153 0-199.924 85.334-199.924 188.953 0 17.066 2.438 34.133 7.314 49.98-7.314 1.22-14.628 1.22-21.943 1.22-29.257 0-53.638-6.096-82.895-12.19l-82.895 41.447 23.162-71.924c-58.515-41.448-93.867-95.086-93.867-160.914 0-113.372 106.057-203.581 235.276-203.581 115.81 0 216.99 71.924 237.714 168.228-6.095 0-14.628-1.219-21.942-1.219zM846.019 576.61c0 53.638-35.352 101.18-82.895 137.752l18.286 59.733-64.61-35.352c-23.162 6.095-47.543 12.19-70.705 12.19-112.152 0-201.143-78.019-201.143-173.104 0-95.086 88.99-173.105 201.143-173.105 104.838-1.22 199.924 76.8 199.924 171.886z"
    fill="#04D102" p-id="44016"></path>
</svg>